<?xml version="1.0" standalone="no"?>
<!DOCTYPE svg PUBLIC "-//W3C//DTD SVG 1.1//EN" "http://www.w3.org/Graphics/SVG/1.1/DTD/svg11.dtd" >
<svg xmlns="http://www.w3.org/2000/svg">
<metadata>
This is a custom SVG font generated by IcoMoon.
<iconset grid="14"></iconset>
</metadata>
<defs>
<font id="icomoon" horiz-adv-x="448" >
<font-face units-per-em="448" ascent="384" descent="-64" />
<missing-glyph horiz-adv-x="448" />
<glyph class="hidden" unicode="&#xf000;" d="M0,384L 448 -64L0 -64 z" horiz-adv-x="0" />
<glyph unicode="&#xe000;" d="M 402.212,187.659c0,0-3.59-11.126-4.118-12.593c-0.571-1.473-4.014-6.094-3.253-6.094c 0.755,0, 8.322-3.504, 8.322-3.504
		l 29.507-9.15l-0.423-13.913c-2.596-0.387-12.771-7.113-14.281-10.476c-0.976-2.185-3.105-6.063-5.21-8.745
		c 26.874-10.856, 42.609-26.702, 43.241-44.469c 0.436-3.179, 16.748-61.382, 17.705-74.491l 124.194,0 c 0.129,0.552-3.713,75.816-3.787,76.399
		c0,0-7.119,18.141-18.417,19.976c-11.31,1.847-25.824,5.812-31.9,10.365c-3.566,2.682-15.115,7.346-20.448,9.31
		c-2.479,0.878-6.794,8.285-8.26,11.648c-1.461,3.357-11.685,10.083-14.287,10.47l-0.417,13.913l 29.5,9.15c0,0, 7.628,3.504, 8.328,3.504
		c 0.761,0-3.498,5.609-4.063,7.082c-0.565,1.467-3.357,11.642-3.357,11.642s 9.948-12.164, 14.999-14.471c0,0-9.911,18.62-12.882,28.973
		c-2.983,10.365-4.903,26.61-4.903,28.077c0,1.473-6.106,45.033-9.463,52.269c-3.357,7.242-7.861,17.036-15.594,21.86
		s-19.221,11.685-35.73,12.581c-0.233,0.006-0.466,0.006-0.755,0.025c-0.233-0.018-0.466-0.018-0.761-0.025
		c-16.502-0.939-27.948-7.757-35.723-12.581c-7.72-4.824-12.28-14.618-15.594-21.86c-3.363-7.236-9.463-50.753-9.463-52.269
		c0-1.461-1.749-18.356-4.683-28.715c-2.976-10.365-13.102-28.334-13.102-28.334C 392.276,175.496, 402.212,187.659, 402.212,187.659zM 145.416,67.061l0,0.773 l 0.061,0.761c 8.046,34.699, 49.845,51.268, 72.662,61.204c 0.025,0.012-0.025-0.006,0,0
		c-13.87,6.315-21.173,11.071-24.597,11.851c-1.399,2.811-4.412,24.008-4.412,24.008s 16.631,14.716, 20.387,42.867c0,0, 8.217-4.517, 8.702,12.587
		c 0.387,13.188, 2.651,18.368-6.315,22.228c0,0, 0.638,9.126, 0.951,17.233c 0.436,11.998, 2.651,28.893-18.147,42.456
		c-2.97,1.945-18.208,10.433-18.331,10.353c-5.444,3.289-12.341,5.413-12.341,5.413l 0.215-4.977c-0.38,0.374-0.761,0.767-1.074,1.074
		c-1.381,1.418-2.16,6.88-2.013,9.052c 0.252,3.842, 0.252,3.842, 0.252,3.842c-9.868-7.334-16.631-16.834-16.631-16.834l 0.865,9.169
		c0,0-1.823-2.817-24.388-16.907c-22.099-13.79-18.442-34.177-17.834-46.254c 0.405-8.101, 1.209-13.71, 1.209-13.71
		c-8.96-3.854-4.265-9.353-4.044-22.584c 0.27-18.251, 9.5-15.029, 9.5-15.029c 4.241-24.873, 17.325-40.068, 17.325-40.068
		s-3.688-21.289-5.106-24.020c-4.069-0.933-13.495-7.42-33.213-15.612c-29.095-12.114-19.97-5.075-43.646-16.932
		c-37.423-18.73-30.034-96.78-30.034-96.78l 117.941,0 L 145.416,67.061zM 466.834-38.838c0,22.247-25.113,116.376-25.113,116.376c0,13.753-18.061,29.47-53.748,38.614c-18.528,4.725-34.011,15.379-34.011,15.379
		c-2.277,1.283-1.958,13.323-1.958,13.323l-11.495,1.749c0,0.988-0.982,15.385-0.982,15.385c 13.741,4.597, 12.323,31.648, 12.323,31.648
		c 8.715-4.811, 14.391,16.576, 14.391,16.576c 10.316,29.721-5.118,27.929-5.118,27.929c 4.897,22.24,0,54.754,0,54.754
		c-6.873,60.216-110.337,43.867-98.057,24.204c-30.249,5.585-23.364-62.818-23.364-62.818l 6.536-17.656c-12.894-8.285-3.909-18.343-3.48-29.893
		c 0.626-17.036, 11.12-13.52, 11.12-13.52c 0.644-28.132, 14.6-31.863, 14.6-31.863c 2.627-17.656, 0.994-14.686, 0.994-14.686l-12.458-1.473
		c 0.565-4.462-0.982-11.973-0.982-11.973c-14.674-6.468-17.773-10.273-32.305-16.582c-28.077-12.194-58.59-28.107-64.015-49.513
		c-5.431-21.406-21.541-105.906-21.541-105.906l 328.562,0 L 466.828-38.838 z" horiz-adv-x="613.699"  />
<glyph unicode="&#xe001;" d="M 246.149-66.265c 19.417,19.412, 130.255,130.319, 199.547,199.596c 62.080,62.085, 60.756,152.581, 4.313,208.719
	C 393.566,398.198, 302.297,397.952, 246.149,341.504C 190.006,397.952, 98.737,398.198, 42.294,342.046C-14.149,285.908-15.468,195.417, 46.607,133.332
	C 115.894,64.049, 226.747-46.853, 246.149-66.265z" horiz-adv-x="492.308"  />
<glyph unicode="&#xe002;" d="M 449.577,285.091L 308.364,285.091 L 308.364,384 l-34.909,0 l0-98.909 L 132.236,285.091 L0,11.636c0,0, 29.091-75.636, 133.818-75.636s 133.818,75.636, 133.818,75.636L 146.74,261.818l 288.337,0 L 314.182,11.636c0,0, 29.091-75.636, 133.818-75.636s 133.818,75.636, 133.818,75.636
	L 449.577,285.091z M 241.798,11.636L 25.839,11.636 L 133.818,235.078L 241.798,11.636z M 340.020,11.636L 448,235.078L 555.98,11.636L 340.020,11.636 z" horiz-adv-x="581.818"  />
<glyph unicode="&#xe003;" d="M 188.263,212.344L 185.244,217.384L 181.718,227.455L 184.236,230.47L 182.721,237.517L 173.663,230.47L 175.679,224.427L 178.192,214.871L 173.663,214.871L 173.663,210.342L 178.698,207.318 zM 161.078,219.4L 162.593,212.344L 170.141,215.87L 172.148,221.914L 169.133,224.929 zM 170.643,259.16L 172.148,263.188L 168.13,267.215L 160.070,267.713L 160.577,261.683 zM 225.514,298.929L 228.023,297.93L 228.534,301.944L 225.514,303.459L 227.517,308.49L 218.463,303.459L 221.984,295.914 zM 247.65,313.53L 242.628,316.043L 239.098,312.513L 245.643,311.514 zM 224,384C 100.289,384,0,283.711,0,160s 100.289-224, 224-224c 123.706,0, 224,100.289, 224,224S 347.706,384, 224,384z M 30.957,160
	c0,40.934, 12.777,78.861, 34.509,110.096l 2.491-1.868l-1.505-6.044l 5.533-1.514l-1.008,8.055l 4.529,0.502l0,10.573 l 4.529,0 
	c0,0, 0.797-2.052, 1.635-4.202c 0.918-2.365, 1.891-4.856, 1.891-4.856l 5.031-5.542c0,0-6.039-1.501-8.051-1.501
	c-2.012,0-1.008-8.055-1.008-8.055l 7.043-2.513l 4.552,8.404l 10.55,11.724l 5.031,15.599l 9.565,9.068l-5.537,4.014l 6.044,4.028
	l 0.502,5.542l-17.615-5.031l-0.556,0.663c 9.592,8.149, 19.981,15.38, 31.051,21.549l 8.261-3.597l-5.533-10.573L 121.811,314.52 l-2.016-9.556l 9.063,0 
	l 13.086,8.055l 9.063,9.054l 1.505,8.557l-13.086,1.004l 9.059,6.044l 8.557-1.514l-1.505-9.054l 11.576,7.056l 2.016-5.542l 2.518-8.055
	l-6.545-8.055l-7.047-6.541l-10.573,1.514l 5.036-10.568l-9.565,1.51l-16.106-16.612l 4.028-5.542l 13.086,1.012l 11.075,3.53l 14.099,1.501
	l 6.541,1.51c0,0,0,4.028-0.506,6.541c-0.497,2.518, 5.036-0.497, 5.036-0.497l 6.044,3.517l 4.529,14.099l 16.607,7.558l-2.513,4.019
	l 4.028,5.040l-13.086,2.016l 3.521,5.031l-16.612,5.542l-8.557,0 l 3.020,7.544l 3.521,3.53l-0.282,0.282C 194.432,351.278, 209.005,353.043, 224,353.043
	c 23.368,0, 45.759-4.153, 66.488-11.76L 289.986,340.096l-8.382,0.56L 281.604,335.616 l 3.36-2.236l0-4.471 l 2.791-3.911l-10.062,6.147l-6.702-3.356
	l 3.351-7.836l 1.68-8.942l 4.471-5.040l 10.613-1.676l-2.231-4.471l-2.24-6.72l 9.511-6.147l-0.56-2.796l-17.893,15.102l-1.111-5.6
	l 7.822-7.827l 4.471-1.676l-10.062-2.236l-1.12-5.040l-7.262,7.28l-4.48,9.502l-1.68,9.511l-4.48-5.591l 3.36-13.422l 5.591-3.924
	l-2.231-12.853l-3.36,1.68l 0.56-6.72l-5.040,0.56l-5.027,7.28l-6.147,0 l-8.951,1.12l-8.956-0.56l-8.382-6.72L 215.609,254.528
	l-11.747-8.951l-1.12-5.031l0-6.16 l 2.796-6.147l 5.596,4.471l 1.676-3.351l 2.8-5.031l 0.56-1.129l 2.796-3.356L 224,223.195l-0.56,12.307
	l 6.147,7.836c0,0, 0.309,1.326, 0.659,2.854c 0.475,2.038, 1.021,4.413, 1.021,4.413l 2.231,6.16l 3.924-0.56l-1.116-5.040l-2.249-11.178
	l 10.64,1.12l 3.916-1.12l-8.396-2.244l 1.116-5.591l-9.511-6.147l 0.56-6.16L 224,217.604l-1.676-4.471l-6.716,2.236l-4.476,0 l0,9.511 
	l-5.036-1.689l0-5.031 l-13.982-11.191l-7.831-2.796l-3.356-3.911l-11.191,2.796l-0.56-5.031l 7.271-2.804l-0.56-10.058l-20.138,0.56
	l-2.796-4.471l-2.796-7.836l-3.36-6.72l 5.036-5.591l 5.596-6.707L 175.343,160l 1.12,6.707l 3.92,3.364l 6.711,2.236l-0.56,4.471
	l 6.156,1.68l 8.947,1.676l 5.596-6.707l 10.067-7.28l 4.476-7.262l0-3.356 l 5.587,3.356l-2.791,5.027l 1.116,5.6l-5.031,2.236
	l-4.476,6.147l 2.796,8.956L 224,179.573l 7.267-5.591l 2.791-10.071l 7.276-5.587l 1.689-6.16l 3.356,7.276l-1.12,3.356l 1.676,2.796
	l 10.613,8.951l 2.24,11.191l 4.48,3.356l 5.591-0.56l 8.391,8.396l 0.56-6.72l 12.293-3.911l0-6.16 l-10.053,0 l-15.102-7.822l-12.307-6.72l 3.356-7.267
	l 11.182-2.236l 6.16-2.796l 6.711,4.471l 0.551-19.022l-19.022-3.911l-20.111,5.6l-7.836-6.16l 3.351-3.351l-6.16,1.116l-19.569,7.276
	l-5.591-0.569l-4.476,7.276l0,8.951 l-10.071,0 l-5.591,1.12l-17.902-3.924l-13.982,1.129l-6.151-3.364l-3.916-0.56l-2.24-7.262L 129.472,133.151
	l-17.902-13.418l-1.12-17.333l-5.036-11.191l 0.56-6.702l 4.476-7.84l 12.867-21.804l 13.422-6.156l 22.373-1.68l-1.12,9.516l-5.036,2.791
	l 2.236,5.031l 3.92-4.471l 3.911-11.747l 16.782-1.12l 6.711-6.702l 9.507-3.924l 1.12-16.218l 10.071-12.867l 9.507-16.773l-8.387-10.071
	l 8.566-13.328C 113.586-29.123, 30.957,55.768, 30.957,160z M 290.152-21.404l 23.336,16.966l-8.382,20.702l 26.844,35.226l 8.382,22.373l 3.911,12.311
	l-13.964-6.72l-8.4-1.68L 301.19,90.65l-6.16,13.982l-7.831,7.831l-10.062,22.364l 8.382-6.707l 15.671-17.338l 5.591-7.831l 11.173-5.591
	l 3.36-14.542l 13.431,8.942l 16.213,20.142l 7.831,20.689l-6.156,5.027l-3.356,6.16l-3.92-7.276l-7.827-8.942l-11.187,12.307l-3.351,9.498
	l 7.831-1.676l 7.827-3.911l 11.187,3.911l 6.72-2.236l 17.88,12.307l 10.084-5.6l 6.147,3.364l 13.373-21.056l 6.626,6.317l 0.13,8.024l 0.551,24.053
	l 4.113,11.397c 1.004-7.952, 1.577-16.038, 1.577-24.264C 417.043,76.632, 364.184,5.597, 290.152-21.404z" horiz-adv-x="448"  />
<glyph unicode="&#xe004;" d="M 225.864,323.672l-222.132-116.915l 222.132-116.915l 128.603,65.032c0,0,0-58.943,0-88.408
		c0-46.771, 46.771-46.771, 46.771-46.771l0,23.377 c0,0-23.377,1.335-23.377,23.386c0,35.069,0,101.562,0,101.562l 70.148,38.73L 225.864,323.672z
		 M 120.637,113.233l0-46.767 c0-11.612, 7.598-27.185, 23.381-35.069l 81.836-35.069l 70.148,35.069c 15.779,7.894, 36.172,23.507, 35.069,35.069l0,46.767 
		l-105.217-51.144L 120.637,113.233z" horiz-adv-x="448"  />
<glyph unicode="&#xe005;" d="M 154.887,233.378A18.583,18.583 180 1 1 192.053,233.378A18.583,18.583 180 1 1 154.887,233.378zM 205.52,252.127C 256.561,344.231, 265.292,380.967, 260.387,383.798c-4.888,2.827-32.337-23.072-86.522-113.263
	C 187.363,270.392, 199.123,263.027, 205.52,252.127zM 136.3,233.378c0,6.657, 1.774,12.898, 4.852,18.31C 36.104,249.828,0,239.032,0,233.378c0-5.649, 36.1-16.451, 141.142-18.305
	C 138.078,220.48, 136.3,226.716, 136.3,233.378zM 205.56,214.683c-6.38-10.913-18.126-18.292-31.633-18.453C 228.081,106.146, 255.494,80.265, 260.396,83.092
	C 265.292,85.923, 256.574,122.637, 205.56,214.683zM 154.887,191.857l0-8.042 L 154.887-64 l 37.171,0 L 192.058,132.806 C 181.395,148.567, 169.098,167.974, 154.887,191.857z" horiz-adv-x="259.84"  />
<glyph unicode="&#xe006;" d="M 300.254,87.254c 17.956,4.368, 43.443,9.731, 70.13,12.593c 1.21,6.088, 1.864,12.302, 1.864,18.637c0,2.37-0.094,4.735-0.273,7.069
		l0,33.86 C 359.48,129.881, 333.881,104.614, 300.254,87.254zM 193.272,70.557c 98.851,0, 178.985,58.213, 178.985,130.023S 292.123,330.598, 193.272,330.598S 14.287,272.385, 14.287,200.58
		C 14.282,128.77, 94.42,70.557, 193.272,70.557z M 43.994,200.589c0,20.904, 23.327,37.847, 52.102,37.847c 28.775,0, 52.102-16.948, 52.102-37.847
		c0-20.904-23.327-37.852-52.102-37.852C 67.316,162.737, 43.994,179.685, 43.994,200.589z M 342.55,200.589c0-20.904-23.336-37.852-52.111-37.852
		S 238.336,179.685, 238.336,200.589s 23.327,37.847, 52.102,37.847S 342.55,221.488, 342.55,200.589z M 141.16,129.993c0,20.899, 23.332,37.852, 52.098,37.852
		c 28.78,0, 52.107-16.952, 52.107-37.852c0-20.908-23.332-37.847-52.107-37.847C 164.488,92.146, 141.16,109.085, 141.16,129.993z M 179.988,200.584
		c0,5.327, 5.949,9.645, 13.283,9.645c 7.334,0, 13.283-4.319, 13.283-9.645s-5.949-9.65-13.283-9.65
		C 185.938,190.934, 179.988,195.253, 179.988,200.584z M 245.37,271.167c0-20.904-23.332-37.852-52.102-37.852c-28.771,0-52.098,16.948-52.098,37.852
		c0,20.908, 23.332,37.852, 52.098,37.852C 222.038,309.023, 245.37,292.075, 245.37,271.167zM 382.968,95.439c-48.106-4.381-108.622-19.837-135.171-27.091c-17.266-3.889-35.562-5.999-54.531-5.999
		c-83.888,0-155.066,40.961-178.783,97.22l0-35.284 c-0.116-1.926-0.202-3.853-0.202-5.802c0-71.81, 80.134-130.019, 178.985-130.019
		c 32.502,0, 62.957,6.326, 89.228,17.324c 98.596,25.787, 153.18,13.875, 153.18,13.875L 435.676,93.002 C 423.27,97.132, 404.347,97.374, 382.968,95.439z" horiz-adv-x="448"  />
<glyph unicode="&#xe007;" d="M 374.685,96.384c-18.906-30.554-79.184-52.886-150.685-52.886c-71.456,0-131.779,22.333-150.662,52.886C 69.328,102.858, 67.2,99.386, 67.2,96.182
	c0-3.226,0-44.845,0-44.845C 67.2,7.904, 137.402-37.12, 224-37.12s 156.8,45.024, 156.8,88.458c0,0,0,41.619,0,44.845C 380.8,99.386, 378.65,102.858, 374.685,96.384z
	 M 374.909,210.96c-18.57-27.014-79.117-46.816-150.909-46.816s-132.339,19.802-150.909,46.816C 69.238,216.538, 67.2,213.514, 67.2,210.982c0-2.531,0-52.774,0-52.774
	c0-39.491, 70.202-71.478, 156.8-71.478s 156.8,31.987, 156.8,71.478c0,0,0,50.243,0,52.774C 380.8,213.514, 378.739,216.538, 374.909,210.96z M 224,357.12
	c-86.598,0-156.8-26.387-156.8-58.957l0-28.202 c0-34.541, 70.202-62.541, 156.8-62.541s 156.8,28, 156.8,62.541L 380.8,298.141 C 380.8,330.733, 310.598,357.12, 224,357.12z"  />
<glyph unicode="&#xe008;" d="M0,384l0-168 c0-112, 112-280, 224-280s 224,168, 224,280L 448,384 l-32.76,0 C 403.704,351.38, 372.582,328, 336,328
	c-36.568,0-67.704,23.38-79.24,56l-65.52,0 C 179.704,351.38, 148.582,328, 112,328S 44.296,351.38, 32.76,384L0,384 z"  />
<glyph unicode="&#xe009;" d="M 381.75,22q 14-22.25 5.375-38.125t-35.125-15.875l-288,0 q-26.5,0 -35.125,15.875t 5.375,38.125l 125.75,198.25l0,99.75 l-16,0 q-6.5,0 -11.25,4.75t-4.75,11.25t 4.75,11.25t 11.25,4.75l 128,0 q 6.5,0 11.25-4.75t 4.75-11.25t-4.75-11.25t-11.25-4.75l-16,0 l0-99.75 zM 187,203.25l-68-107.25l 178,0 l-68,107.25l-5,7.75l0,9.25 l0,99.75 l-32,0 l0-99.75 l0-9.25 z" horiz-adv-x="416"  />
<glyph unicode="&#xe00a;" d="M 393.008,37.517l-84.65,84.65c 12.768,20.989, 20.115,45.584, 20.115,71.949c0,76.518-66.326,142.845-142.867,142.845
		C 109.088,336.96, 47.040,274.912, 47.040,198.394c0-76.541, 66.304-142.867, 142.845-142.867c 25.446,0, 49.28,6.899, 69.776,18.883l 85.098-85.12
		c 8.355-8.333, 21.84-8.333, 30.15,0l 21.123,21.101C 404.342,18.723, 401.318,29.206, 393.008,37.517z M 89.69,198.394
		c0,52.976, 42.941,95.939, 95.917,95.939c 52.998,0, 100.218-47.219, 100.218-100.218s-42.941-95.939-95.939-95.939S 89.69,145.395, 89.69,198.394z"  />
<glyph unicode="&#xe00b;" d="M 212-40q0,4 -4,4q-14.75,0 -25.375,10.625t-10.625,25.375q0,4 -4,4t-4-4q0-18.25 12.875-31.125t 31.125-12.875q 4,0 4,4zM 416,32q0-13 -9.5-22.5t-22.5-9.5l-112,0 q0-26.5 -18.75-45.25t-45.25-18.75t-45.25,18.75t-18.75,45.25l-112,0 q-13,0 -22.5,9.5t-9.5,22.5q 47.5,40.25 71.75,99.375t 24.25,124.625 q0,41.25 24,65.5t 66,29.25q-2,4.5 -2,9.25q0,10 7,17t 17,7t 17-7t 7-17q0-4.75 -2-9.25q 42-5 66-29.25t 24-65.5q0-65.5 24.25-124.625t 71.75-99.375z" horiz-adv-x="416"  />
<glyph unicode="&#xe00c;" d="M 106.23-13.994L 106.23-4.488L 96.092-0.057L 106.23,7.559L 119.128,63.452L 122.080,108.968L 143.217,79.539L 137.926,104.538L 123.98,112.776L 119.652,129.263L 124.616,136.865L 119.652,140.033L 123.98,145.104L 96.092,166.021L 87.217,181.867L 92.924,181.867L 97.359,191.373L 87.217,196.449L 77.71,196.449L 85.313,207.855L 66.931,210.396L 46.65,220.534L 31.436,234.48L 22.566,223.706L 10.519,237.016L 25.733,241.451L 23.197,253.498L 10.519,257.713L 31.266,269.863L 51.085,265.54L 52.989,276.314L 70.739,276.314L 81.514,263.004L 96.392,259.008L 104.335,261.732L 122.716,257.713L 115.105,271.243L 114.473,295.964L 104.966,306.738L 108.134,311.809L 133.486,311.809L 130.95,293.428L 139.194,294.060L 153.772,288.988L 168.986,289.624L 178.492,295.964L 174.057,304.202L 178.492,311.809L 215.255,326.392L 220.963,337.798L 220.963,369.489L 235.54,373.929L 243.779,373.929L 253.926,366.322L 257.721,354.28L 267.868,362.518L 274.848,350.476L 286.254,351.744L 286.254,338.434L 297.024,341.601L 299.564,323.22L 310.97,323.856L 321.386,337.162L 321.386,314.981L 333.146,311.178L 343.934,300.399L 354.072,302.303L 360.407,298.499L 369.914,299.767L 385.759,287.089L 394.643,287.725L 411.752,280.749L 430.143,278.85L 418.728,257.713L 414.297,235.112L 414.92,211.659L 407.953,202.784L 400.346,209.759L 393.375,200.884L 397.811,193.909L 383.864,179.967L 380.697,168.628L 364.847,155.247L 364.215,133.057L 375.63,135.597L 378.157,149.539L 392.103,150.175L 400.978,129.89L 394.007,117.848L 404.786,99.466L 389.572,91.859L 394.643,79.539L 406.681,72.21L 399.078,56.364L 408.585,38.619L 430.143,43.686L 427.603,25.313L 409.848,18.97L 397.811-5.119L 380.697-13.994L 355.972-5.119L 345.206,6.927L 336.327-0.057L 321.386-0.684L 297.024,8.186L 279.279-6.392L 269.772-7.655L 266.6-22.237L 270.399-49.494L 239.344-49.494L 232.306-53.929L 220.331-46.326L 215.891-35.543L 197.51-34.911L 188.635-26.673L 182.932-33.648L 160.111-33.012L 148.7-24.146L 137.29-28.577L 130.319-19.070L 115.741-17.802 z" horiz-adv-x="448"  />
<glyph unicode="&#xe00d;" d="M 420,272L 308,272 L 308,300 c0,15.4-12.6,28-28,28L 168,328 c-15.402,0-28-12.6-28-28l0-28 L 28,272 c-15.4,0-28-12.6-28-28l0-252 
	c0-15.401, 12.598-28, 28-28l 392,0 c 15.4,0, 28,12.599, 28,28L 448,244 C 448,259.4, 435.4,272, 420,272z M 168,299.949
	c 0.015,0.018, 0.032,0.036, 0.050,0.051l 111.9,0 c 0.018-0.015, 0.036-0.033, 0.052-0.051L 280.002,272 L 168,272 L 168,299.949 z M 420,160l-56,0 l0-42 
	c0-7.701-6.3-14-14-14l-28,0 c-7.702,0-14,6.299-14,14l0,42 L 140,160 l0-42 c0-7.701-6.3-14-14-14l-28,0 c-7.701,0-14,6.299-14,14l0,42 L 28,160 l0,28 l 392,0 
	L 420,160 z"  />
<glyph unicode="&#xe00e;" d="M 336-64L 336,356 l 28,0 L 364,384 l 28,0 l0-28 l 28,0 l0-420 L 336-64 z M 224,244l 28,0 L 252,272 l 28,0 l0-28 l 28,0 l0-308 L 224-64 L 224,244 z M 112,132l 28,0 L 140,160 l 28,0 l0-28 l 28,0 l0-196 L 112-64 L 112,132 z
	 M0,20l 28,0 l0,28 l 28,0 l0-28 l 28,0 l0-84 L0-64 L0,20 z"  />
<glyph unicode="&#xe00f;" d="M 15.456,130.163l 30.531-7.571l 22.982,36.109L 25.29,169.52c-10.931,2.733-21.974-3.898-24.685-14.784
	C-2.106,143.894, 4.547,132.874, 15.456,130.163z M 413.974,124.339l-99.971-90.003l-117.555,90.966c-2.24,1.747-4.816,2.979-7.571,3.674
	l-15.658,3.853l-22.982-36.086l 24.618-6.070l 127.635-98.739c 3.696-2.89, 8.086-4.278, 12.499-4.278c 4.906,0, 9.811,1.747, 13.664,5.242
	l 112.605,101.36c 8.355,7.526, 8.982,20.339, 1.456,28.65C 435.21,131.216, 422.33,131.866, 413.974,124.339z M 194.522,223.146l 109.469-70.090
	c 9.229-5.891, 21.504-3.45, 27.754,5.533l 112.627,162.221c 6.384,9.229, 4.077,21.84-5.174,28.224s-21.93,4.054-28.336-5.152l-101.427-146.093
	L 199.293,268.304C 194.746,271.216, 189.213,272.202, 183.904,271.037S 174.003,266.669, 171.114,262.099L 3.181-1.526c-6.048-9.453-3.226-21.952, 6.272-27.955
	C 12.835-31.632, 16.621-32.64, 20.362-32.64c 6.742,0, 13.328,3.315, 17.203,9.408L 194.522,223.146z"  />
<glyph unicode="&#xe010;" d="M 436.531,330.531l-103.69-168.918c-3.853-6.25-11.379-7.28-16.755-2.262l-50.131,46.95c-5.376,5.018-13.082,4.122-17.158-2.016
	l-70.403-106.176c-4.054-6.115-11.827-7.078-17.27-2.15L 128.352,125.885c-5.443,4.95-13.642,4.301-18.234-1.411l-103.242-128.755
	C 2.262-10.038, 4.525-14.72, 11.85-14.72l 431.67,0 L 443.52,328.56 C 443.542,335.93, 440.384,336.826, 436.531,330.531z"  />
<glyph unicode="&#xe011;" d="M 140,104l 232.974,114.954c 25.368,12.53, 25.368,37.576,0,50.092L 140,384L 140,104 z M 84,384C 70,384, 56,370, 56,356
	l0-392 c0-14, 14-28, 28-28s 28,14, 28,28L 112,356 C 112,370, 98,384, 84,384z"  />
<glyph unicode="&#xe012;" d="M0-64L0,216 l 448,0 l0-280 L0-64 z M 336,76L 112,76 l0-112 l 224,0 L 336,76 z M 308,20L 140,20 l0,28 l 168,0 L 308,20 z M 56,272l 336,0 l0-28 L 56,244 L 56,272 z M 84,328l 280,0 
	l0-28 L 84,300 L 84,328 z M 112,384l 224,0 l0-28 L 112,356 L 112,384 z"  />
<glyph unicode="&#xe013;" d="M 336,92.8c-15.411,0-29.523-5.219-40.858-13.933l-116.906,70.134C 178.797,152.586, 179.2,156.259, 179.2,160c0,3.763-0.403,7.414-0.963,10.998
		l 116.906,70.134C 306.477,232.419, 320.589,227.2, 336,227.2c 37.094,0, 67.2,30.083, 67.2,67.2s-30.106,67.2-67.2,67.2s-67.2-30.083-67.2-67.2c0-3.741, 0.403-7.414, 0.986-10.998
		L 152.88,213.245C 141.546,221.981, 127.411,227.2, 112,227.2c-37.117,0-67.2-30.083-67.2-67.2c0-37.094, 30.083-67.2, 67.2-67.2c 15.411,0, 29.546,5.219, 40.88,13.933l 116.906-70.134
		C 269.203,33.014, 268.8,29.363, 268.8,25.6c0-37.094, 30.106-67.2, 67.2-67.2s 67.2,30.106, 67.2,67.2S 373.094,92.8, 336,92.8z"  />
<glyph unicode="&#xe014;" d="M 336.403,48L 336.381,120.307L 4.48,120.285L 4.48,199.872L 336.403,199.872L 336.381,272L 443.52,160 z"  />
<glyph unicode="&#xf0d7;" d="M 256,208q0-6.5 -4.75-11.25l-112-112q-4.75-4.75 -11.25-4.75t-11.25,4.75l-112,112q-4.75,4.75 -4.75,11.25t 4.75,11.25t 11.25,4.75l 224,0 q 6.5,0 11.25-4.75t 4.75-11.25z" horiz-adv-x="256"  />
<glyph unicode="&#xf0d8;" d="M 256,80q0-6.5 -4.75-11.25t-11.25-4.75l-224,0 q-6.5,0 -11.25,4.75t-4.75,11.25t 4.75,11.25l 112,112q 4.75,4.75 11.25,4.75t 11.25-4.75l 112-112q 4.75-4.75 4.75-11.25z" horiz-adv-x="256"  />
<glyph unicode="&#xf0d9;" d="M 160,272l0-224 q0-6.5 -4.75-11.25t-11.25-4.75t-11.25,4.75l-112,112q-4.75,4.75 -4.75,11.25t 4.75,11.25l 112,112q 4.75,4.75 11.25,4.75t 11.25-4.75t 4.75-11.25z" horiz-adv-x="160"  />
<glyph unicode="&#xf0da;" d="M 144,160q0-6.5 -4.75-11.25l-112-112q-4.75-4.75 -11.25-4.75t-11.25,4.75t-4.75,11.25l0,224 q0,6.5 4.75,11.25t 11.25,4.75t 11.25-4.75l 112-112q 4.75-4.75 4.75-11.25z" horiz-adv-x="160"  />
<glyph unicode="&#x2b07;" d="M 224,132L 336,244L 252,244L 252,356L 196,356L 196,244L 112,244 	zM 325.818,177.819L 294.431,146.431L 408.216,104L 224,35.305L 39.784,104L 153.569,146.431L 122.181,177.819L0,132L0,20L 224-64L 448,20L 448,132 	z"  />
<glyph unicode="&#x2b51;" d="M 416,222.25q0-5.5 -6.5-12l-90.75-88.5l 21.5-125q 0.25-1.75 0.25-5q0-5.25 -2.625-8.875t-7.625-3.625q-4.75,0 -10,3l-112.25,59l-112.25-59q-5.5-3 -10-3q-5.25,0 -7.875,3.625t-2.625,8.875q0,1.5 0.5,5l 21.5,125l-91,88.5q-6.25,6.75 -6.25,12q0,9.25 14,11.5l 125.5,18.25l 56.25,113.75q 4.75,10.25 12.25,10.25t 12.25-10.25l 56.25-113.75 l 125.5-18.25q 14-2.25 14-11.5z" horiz-adv-x="416"  />
<glyph unicode="&#xe016;" d="M 392,342L 172.060,141.94L 84,230L0,146L 168-22L 448,286 z"  />
<glyph unicode="&#xe017;" d="M 406,132 C 437.938,132 420,48 392,48 C 406,48 392-22 364-22 C 364-50 336-64 308-64 C 189.721-64 231.322-34.403 112-22 L 112,202 C 217.403,233.617 322,312.873 322,384 C 345.188,384 406,356 322,216 C 322,216 392,216 406,216 C 448,216 434,132 406,132 ZM 84,202 L 84-22 L 112-22 L 112-36 L 56-36 C 40.6-36 28-17.1 28,6 L 28,174 C 28,197.1 40.6,216 56,216 L 112,216 L 112,202 L 84,202 Z"  />
<glyph unicode="&#xe018;" d="M 24.64,268.268L 426.052,268.268L 426.052,228.248L 24.64,228.248zM 24.64,179.197L 358.346,179.197L 358.346,139.172L 24.64,139.172zM 24.64,90.125L 389.782,90.125L 389.782,50.106L 24.64,50.106z" horiz-adv-x="448"  />
<glyph unicode="&#xf09e;" d="M 96,48q0-20 -14-34t-34-14t-34,14t-14,34t 14,34t 34,14t 34-14t 14-34zM 224,17.25q 0.5-7 -4.25-12q-4.5-5.25 -11.75-5.25l-33.75,0 q-6.25,0 -10.75,4.125t-5,10.375q-5.5,57.25 -46.125,97.875t-97.875,46.125q-6.25,0.5 -10.375,5t-4.125,10.75l0,33.75 q0,7.25 5.25,11.75q 4.25,4.25 10.75,4.25l 1.25,0 q 40-3.25 76.5-20.125 t 64.75-45.375q 28.5-28.25 45.375-64.75t 20.125-76.5zM 352,16.75q 0.5-6.75 -4.5-11.75q-4.5-5 -11.5-5l-35.75,0 q-6.5,0 -11.125,4.375t-4.875,10.625q-3,53.75 -25.25,102.125t-57.875,84t-84,57.875t-102.125,25.5q-6.25,0.25 -10.625,4.875t-4.375,10.875l0,35.75 q0,7 5,11.5q 4.5,4.5 11,4.5l 0.75,0 q 65.5-3.25 125.375-30t 106.375-73.5 q 46.75-46.5 73.5-106.375t 30-125.375z" horiz-adv-x="352"  />
<glyph unicode="&#xe015;" d="M 128.002,160c0,51.548, 42.98,93.338, 95.998,93.338s 95.998-41.79, 95.998-93.338
	s-42.98-93.338-95.998-93.338S 128.002,108.452, 128.002,160z M0,156.64C 41.482,75.496, 125.468,20, 222.348,20C 321.86,20, 407.806,78.59, 448,163.36
	C 406.518,244.504, 322.518,300, 225.652,300C 126.14,300, 40.208,241.41,0,156.64z M 175.994,160c0-25.774, 21.49-46.662, 48.006-46.662s 48.006,20.888, 48.006,46.662
	S 250.516,206.662, 224,206.662S 175.994,185.774, 175.994,160z"  />
<glyph unicode="&#xe019;" d="M 280,384l0-54.25 c0-22.428-8.75-43.526-24.556-59.332L 97.020,112.862C 71.974,87.872, 58.184,55.056, 56.658,20L0,20 
			l 84-84l 84,84L 112.602,20 c 1.47,20.132, 9.576,38.822, 23.954,53.27l 158.424,157.5C 321.454,257.23, 336,292.342, 336,329.75L 336,384 L 280,384 zM 335.342,20c-1.526,35.056-15.372,67.872-40.418,92.974l-31.22,31.010L 224,104.49l 31.388-31.22
			c 14.434-14.378, 22.526-33.138, 24.010-53.27L 224,20 l 84-84l 84,84L 335.342,20 z" horiz-adv-x="392"  />
<glyph unicode="&#xe01d;" d="M 196,132L 252,132L 252,244L 336,244L 224,356L 112,244L 196,244 	zM 280,195L 280,151.814L 408.216,104L 224,35.305L 39.784,104L 168,151.814L 168,195L0,132L0,20L 224-64L 448,20L 448,132 	z"  />
<glyph unicode="&#xf081;" d="M 320,239.5q0,3.25 -2.375,5.625t-5.625,2.375q-1.25,0 -3.75-1q 5,8.5 5,13.75q0,3.25 -2.375,5.625t-5.625,2.375q-1.75,0 -4.25-1.25q-15-8.5 -24.25-10.75q-16.25,15.75 -38.5,15.75q-24.5,0 -41.125-18.125t-16.125-42.375l0-3 q-26.75,3.5 -46.875,16t-39.125,34.75q-2.5,3 -7,3q-6.5,0 -10.25-12.625t-3.75-21.625q0-15.5 7.25-29.25 q-3.25-0.5 -5.375-2.875t-2.125-5.625q0-28 20.25-46.25q-3-2 -3-6.25q0-1.5 0.25-2.25q 3.75-12.75 12.625-22.875t 21.125-15.125q-19.25-10.75 -41.25-10.75q-2,0 -6,0.375t-5.75,0.375q-3.25,0 -5.625-2.375t-2.375-5.625q0-4.25 3.5-6.5q 15.75-11.75 37.5-18.375t 42.5-6.625q 32.5,0 62,14.5q 41.5,19.75 64,58.125t 22,84.875l0,3  q 6.75,5.5 15.625,15.75t 8.875,15.25zM 384,280l0-240 q0-29.75 -21.125-50.875t-50.875-21.125l-240,0 q-29.75,0 -50.875,21.125t-21.125,50.875l0,240 q0,29.75 21.125,50.875t 50.875,21.125l 240,0 q 29.75,0 50.875-21.125t 21.125-50.875z" horiz-adv-x="384"  />
<glyph unicode="&#xf082;" d="M 312,352q 29.75,0 50.875-21.125t 21.125-50.875l0-240 q0-29.75 -21.125-50.875t-50.875-21.125l-87.5,0 q-0.5,0 -0.5,0.25l0,167.75 l 44.25,0 q 7.75,0 8,5.75l 3,41q 0.5,3.75 -2,6.25q-2.5,3 -6,3l-47.25,0 l0,18 q0,11 2.875,14.25t 13.625,3.25q 14.25,0 29.25-3.25q 3.25-0.75 6.5,1.25q 2.75,2 3.25,5.5l 5.75,41.5q 0.5,3 -1.375,5.625t-4.875,3.375 q-23.25,6.5 -49.25,6.5q-77.75,0 -77.75-74.75l0-21.25 l-23.75,0 q-3.25,0 -5.75-2.625t-2.5-6.125l0-43 q0-2 1.375-3t 2.5-1.125t 4.375-0.125l 23.75,0 l0-167.75 l 2.5-0.25l-82.5,0 q-29.75,0 -50.875,21.125t-21.125,50.875l0,240 q0,29.75 21.125,50.875t 50.875,21.125l 240,0 z" horiz-adv-x="384"  />
<glyph unicode="&#xf08c;" d="M 128,40l0,160 q0,3.25 -2.375,5.625t-5.625,2.375l-48,0 q-3.25,0 -5.625-2.375t-2.375-5.625l0-160 q0-3.25 2.375-5.625t 5.625-2.375l 48,0 q 3.25,0 5.625,2.375t 2.375,5.625zM 125.75,257q0,12.75 -9,21.875t-22,9.125q-12.75,0 -21.75-9.125t-9-21.875t 9-21.875t 21.75-9.125q 13,0 22,9.125t 9,21.875zM 320,40l0,108.75  q0,31.75 -18.375,48.125t-50.625,16.375q-22.5,0 -39.5-11.25q-3-2 -3.5-3q0,9 -8.75,9l-44,0 q-3.5,0 -7.375-1.875t-3.875-5.125l0-161 q0-3.25 3.875-5.625t 7.375-2.375l 45.5,0 q 3,0 5.125,2.375t 2.125,5.625l0,87.25 q0,35 28.5,35q 12.25,0 15.875-5.625t 3.625-18.375l0-98.25 q0-3.25 3-5.625t 6.5-2.375l 46.5,0  q 3.25,0 5.625,2.375t 2.375,5.625zM 384,280l0-240 q0-29.75 -21.125-50.875t-50.875-21.125l-240,0 q-29.75,0 -50.875,21.125t-21.125,50.875l0,240 q0,29.75 21.125,50.875t 50.875,21.125l 240,0 q 29.75,0 50.875-21.125t 21.125-50.875z" horiz-adv-x="384"  />
<glyph unicode="&#xf0d4;" d="M 169.5-14.25q0-9.5 -2.5-17.75l-95,0 q-23.75,0 -42.875,14.125t-25.875,36.875q 6,11.25 17.25,19.375t 25,12.375t 26.75,6t 26.75,1.75q 8,0 12.25-0.5q 1.5-1 7.625-5.25t 8.25-5.75t 7.75-5.75t 8-6.375t 6.875-6.375t 6.625-7.375t 5.25-7.625t 4.375-8.625t 2.375-9t 1.125-10.125zM 96.25,73.5q-58.5-1.75 -96.25-21.25l0,108.25 q 25.75-29.5 68.25-29.5 q 8,0 17.5,1.25q-5.25-15.25 -5.25-21.5q0-16.75 15.75-37.25zM 139.5,201.25q0-25 -10.875-40.125t-35.125-15.125q-12.75,0 -24.25,6.5t-19.5,16.875t-14,23.375t-8.875,26t-2.875,24.75q0,24 12.875,41.25t 36.125,17.25q 16.5,0 29.75-10.25t 21-26t 11.75-32.5t 4-32zM 384,224l0-184 q0-29.75 -21.125-50.875t-50.875-21.125l-117,0  q 9.75,18.25 9.75,39.25q0,16.5 -5.5,30.625t-13.875,23.25t-18,17.75t-18,14.875t-13.875,13.625t-5.5,14.875q0,9 5.75,17t 14,15.375t 16.375,16.125t 13.875,23.25t 5.75,32.75t-6.625,36.375t-18.875,29.625q-1.5,1.5 -3.5,2.75t-3.125,1.875t-2.5,2.375t-2.625,4.25l 33.75,0 l 33.75,16l-109.25,0 q-34.5,0 -61.125-9.625t-45.625-33.375q0,31.5 20.25,53.25t 51.75,21.75l 240,0  q 29.75,0 50.875-21.125t 21.125-50.875l0-24 l-64,0 l0,64 l-32,0 l0-64 l-64,0 l0-32 l 64,0 l0-64 l 32,0 l0,64 l 64,0 z" horiz-adv-x="384"  />
<glyph unicode="&#x270e;" d="M 35.706,265.594c 10.931-5.891, 162.378-87.226, 168.022-90.25C 209.35,172.32, 216.653,170.864, 224,170.864c 7.37,0, 14.672,1.456, 20.294,4.502
		c 5.645,3.024, 157.069,84.358, 168,90.25C 423.248,271.485, 433.597,289.92, 413.504,289.92L 34.518,289.92 C 14.426,289.92, 24.752,271.485, 35.706,265.594z M 416.931,220.794
		c-12.432-6.496-165.021-86.262-172.637-90.25S 231.37,126.042, 224,126.042c-7.347,0-12.656,0.515-20.272,4.502S 43.501,214.32, 31.091,220.794
		C 22.333,225.363, 22.4,220.010, 22.4,215.888c0-4.122,0-164.304,0-164.304C 22.4,42.176, 34.922,30.080, 44.621,30.080l 358.781,0 c 9.722,0, 22.198,12.096, 22.198,21.482
		c0,0,0,160.182,0,164.304C 425.6,220.010, 425.69,225.363, 416.931,220.794z"  />
<glyph unicode="&#xe01b;" d="M 224,384C 146.68,384, 84,321.32, 84,244c0-140, 140-308, 140-308s 140,168, 140,308C 364,321.32, 301.319,384, 224,384z M 224,160
	c-46.393,0-84,37.607-84,84s 37.607,84, 84,84s 84-37.607, 84-84S 270.392,160, 224,160z"  />
<glyph unicode="&#xe01c;" d="M 315.602,28.078c 3.213-7.518, 2.695-16.527, 7.945-19.705
		c 4.774-2.912, 12.684-0.623, 19.698-2.065c-4.375-3.206-8.652-6.552-13.167-9.555c-2.541-1.708-3.283-3.276-2.079-6.314
		c 1.995-5.124, 3.416-10.472, 5.551-17.164c-3.871,2.8-6.699,4.83-9.527,6.881c-8.316,6.034-8.302,6.020-16.912-0.203
		c-2.737-1.981-5.495-3.899-9.394-6.678c 2.107,6.44, 3.444,11.634, 5.495,16.555c 1.491,3.563, 0.399,5.474-2.513,7.406
		c-4.235,2.814-8.302,5.943-14.070,10.101c 7.14,0, 12.481,0.203, 17.787-0.063c 3.416-0.168, 5.019,1.134, 5.894,4.347
		C 311.731,16.682, 313.523,21.673, 315.602,28.078zM 161.455,7.323c-4.942-3.612-8.253-6.685-12.103-8.715
		c-5.341-2.835-5.726-6.44-3.577-11.494c 1.645-3.864, 2.639-8.001, 4.452-13.671c-5.88,4.228-10.437,7.259-14.693,10.647
		c-2.289,1.82-3.857,1.736-6.097-0.049c-4.438-3.5-9.128-6.678-14.847-10.829c 1.897,5.796, 3.038,10.332, 4.858,14.553
		c 2.009,4.662, 1.575,7.763-3.22,10.416c-4.018,2.205-7.511,5.369-12.621,9.135c 6.937,0, 12.173,0.252, 17.374-0.077
		c 3.717-0.245, 5.362,1.246, 6.279,4.655c 1.33,4.942, 3.038,9.779, 5.138,16.394c 2.128-6.37, 3.99-11.305, 5.397-16.394
		c 0.945-3.43, 2.583-4.9, 6.293-4.655C 149.191,7.582, 154.322,7.323, 161.455,7.323zM 83.097,40.839c-6.545,4.592-11.235,10.115-16.779,11.165
		c-5.887,1.134-9.87-6.335-15.309-9.044c-0.7-0.336-1.631-0.203-2.415-0.294c-0.168,0.476-0.448,0.84-0.364,1.050
		c 7.469,16.555, 7.462,16.555-7.049,27.279c-1.106,0.805-2.835,1.148-2.947,3.549c 5.299,0, 10.563,0.266, 15.785-0.091
		c 3.773-0.252, 5.313,1.302, 6.223,4.676c 1.337,4.935, 3.052,9.786, 5.089,16.184c 2.065-6.083, 4.004-10.878, 5.278-15.848
		c 0.966-3.752, 2.639-5.285, 6.629-5.005c 5.089,0.343, 10.22,0.077, 16.163,0.077c-3.479-4.291-7.714-6.678-11.634-9.205
		c-4.081-2.639-5.46-5.236-3.36-9.94C 80.269,51.199, 81.284,46.593, 83.097,40.839zM 364.616,40.223c 2.366,7.049, 4.074,12.313, 5.95,17.521
		c 0.945,2.639, 0.357,4.34-2.009,5.95c-4.564,3.094-8.939,6.482-14.917,10.864c 7.084,0, 12.495,0.189, 17.871-0.077
		c 3.388-0.147, 5.005,1.022, 5.88,4.291c 1.379,5.103, 3.227,10.066, 5.348,16.583c 1.911-5.747, 3.801-9.912, 4.648-14.287
		c 1.064-5.565, 4.018-7.119, 9.31-6.601c 4.361,0.434, 8.806,0.091, 15.106,0.091c-5.481-4.025-9.324-7.273-13.587-9.877
		c-3.528-2.156-4.417-4.326-2.884-8.316c 1.652-4.249, 3.598-8.575, 3.927-13.888c-5.306,1.743-8.764,5.264-12.551,8.12
		c-2.842,2.163-4.816,2.548-7.728,0.077C 374.801,47.167, 370.195,44.22, 364.616,40.223zM 389.487,132.063c 2.282,7.616, 6.643,14.539, 5.453,20.335
		c-1.26,6.076-10.339,8.001-15.848,13.755c 5.166,0, 9.597,0.504, 13.853-0.126c 6.237-0.917, 8.876,1.764, 10.052,7.469
		c 0.861,4.123, 2.513,8.078, 4.235,13.426c 1.064-3.087, 1.736-4.872, 2.324-6.678c 4.55-14.168, 4.536-14.168, 19.726-14.098
		c 1.666,0.014, 3.339,0.007, 6.888,0.007c-5.663-4.172-9.856-7.525-14.343-10.479c-2.8-1.862-3.402-3.647-2.135-6.853
		c 1.967-5.082, 3.374-10.395, 5.411-16.772c-5.565,4.032-10.157,7.14-14.476,10.598c-2.464,1.974-4.277,1.897-6.713-0.035
		C 399.504,139.112, 394.835,135.934, 389.487,132.063zM 70.014,166.153c-5.81-4.221-9.863-7.364-14.133-10.199
		c-2.933-1.925-3.773-3.899-2.513-7.434c 1.75-4.928, 3.934-9.8, 4.55-15.841c-4.893,3.521-9.352,6.461-13.475,9.821
		c-2.695,2.184-4.655,1.925-7.224-0.126c-4.158-3.339-8.589-6.321-14.084-10.325C 25.2,138.615, 26.6,144.047, 28.63,149.22
		c 1.204,3.066, 0.427,4.606-2.072,6.293c-4.508,3.031-8.813,6.335-14.728,10.647c 6.587,0, 11.235,0.385, 15.806-0.105
		c 4.9-0.504, 7.378,1.099, 8.47,5.964c 1.043,4.655, 2.863,9.135, 4.774,15.029c 1.778-5.418, 3.5-9.548, 4.445-13.846
		c 1.183-5.425, 3.647-7.994, 9.597-7.168C 59.241,166.636, 63.728,166.153, 70.014,166.153zM 399.329,224.757c-0.462,0.049-0.728,0-0.875,0.112
		c-4.977,3.647-9.541,9.338-15.022,10.423c-5.509,1.099-9.681-5.95-14.777-8.869c-0.7-0.399-1.491-0.609-3.43-1.365
		c 1.862,5.691, 3.129,10.542, 5.033,15.141c 1.435,3.5, 0.532,5.453-2.478,7.406c-4.291,2.793-8.323,5.992-14.042,10.157
		c 6.986,0, 12.376,0.217, 17.731-0.077c 3.353-0.175, 4.977,0.91, 5.866,4.179c 1.435,5.278, 3.339,10.43, 5.439,16.842
		c 1.82-5.537, 3.745-9.611, 4.459-13.881c 1.022-6.23, 4.347-7.812, 10.115-7.147c 4.13,0.469, 8.379,0.091, 14.427,0.091
		c-5.908-4.291-10.227-7.616-14.749-10.647c-2.555-1.729-2.926-3.36-1.967-6.384C 396.69,235.523, 399.476,230.525, 399.329,224.757zM 94.402,257.762c-5.642-4.137-9.786-7.371-14.154-10.283
		c-2.709-1.806-3.668-3.605-2.464-6.888c 1.869-5.11, 3.192-10.423, 5.033-16.597c-5.236,3.829-9.744,6.93-14.028,10.325
		c-2.457,1.925-4.291,1.778-6.783-0.049c-4.333-3.171-8.295-7.070-14.098-9.261c 2.058,7.196, 7.378,14.077, 5.236,19.292
		c-2.184,5.313-9.772,8.393-15.512,12.852c 5.775,1.218, 11.228,0.63, 16.604,0.511c 3.395-0.077, 4.935,1.029, 5.796,4.249
		c 1.386,5.152, 3.206,10.192, 5.32,16.772c 2.086-6.23, 3.962-11.242, 5.411-16.387c 0.938-3.353, 2.352-4.928, 6.174-4.634
		C 82.166,258.070, 87.451,257.762, 94.402,257.762zM 132.405,345.829c 1.582-4.571, 2.702-7.721, 3.745-10.899
		c 3.339-10.143, 3.332-10.143, 14.21-10.143c 3.108,0, 6.223,0, 10.955,0c-5.628-4.137-9.758-7.42-14.147-10.304
		c-2.828-1.862-3.367-3.696-2.275-6.937c 1.736-5.138, 4.13-10.164, 4.564-16.163c-10.591,10.486-20.965,14.756-31.969,1.449
		c-0.553-0.665-1.526-0.693-2.296-0.014c 1.904,6.216, 6.321,13.013, 5.026,18.48c-1.365,5.761-10.010,7.896-15.344,12.873
		c 5.642,1.288, 11.060,0.595, 16.366,0.504c 3.395-0.056, 4.963,1.057, 5.838,4.249C 128.478,334.083, 130.263,339.123, 132.405,345.829zM 241.843,315.197c-6.468,4.767-10.976,10.227-16.513,11.599
		c-6.139,1.526-10.052-5.957-15.372-8.771c-0.896-0.476-1.897-0.77-3.444-1.386c 1.862,5.684, 3.304,10.857, 5.264,15.834
		c 1.204,3.010, 0.483,4.662-2.065,6.37c-4.417,2.954-8.617,6.23-14.427,10.465c 7.014,0, 12.432,0.175, 17.836-0.063
		c 3.087-0.14, 4.606,0.938, 5.439,3.906c 1.484,5.229, 3.304,10.367, 5.551,17.283c 2.149-6.65, 3.913-11.571, 5.292-16.59
		c 0.917-3.374, 2.45-4.907, 6.237-4.62c 5.11,0.385, 10.269,0.091, 17.241,0.091c-5.25-3.857-9.107-6.993-13.265-9.632
		c-3.402-2.17-4.564-4.312-2.856-8.358C 238.728,326.663, 239.862,321.644, 241.843,315.197zM 286.93,324.794c 7.147,0, 12.677,0.196, 18.158-0.084c 2.968-0.147, 4.2,1.036, 4.977,3.626
		c 1.638,5.432, 3.458,10.808, 5.663,17.563c 1.981-6.097, 3.703-10.619, 4.893-15.267c 1.064-4.284, 2.898-6.503, 7.819-5.957
		c 4.746,0.532, 9.625,0.119, 16.163,0.119c-5.74-4.179-9.898-7.413-14.287-10.318c-2.751-1.827-3.388-3.563-2.254-6.881
		c 1.652-4.76, 3.927-9.429, 4.347-15.897c-3.311,2.366-5.782,4.179-8.316,5.922c-10.584,7.322-6.153,7.308-17.066-0.154
		c-2.45-1.68-4.802-3.451-7.819-5.635c-0.399,4.823, 1.288,8.379, 2.8,11.585c 2.912,6.16, 1.995,10.255-4.2,13.496
		C 294.357,318.711, 291.417,321.49, 286.93,324.794zM 217.448-16.407c 2.051,6.195, 4.102,12.369, 6.664,20.048
		c 2.541-7.686, 4.592-13.853, 6.643-20.048c 5.166-1.834, 10.514-0.224, 15.736-0.896c 1.505-0.196, 3.976,1.505, 4.473-1.666
		c-4.991-3.654-11.879-6.328-14.399-11.249c-2.485-4.823, 2.667-11.046, 4.116-16.772c 0.189-0.777, 0.014-1.645, 0.014-3.409
		c-4.375,3.199-8.519,5.726-12.061,8.918c-3.458,3.129-5.992,2.576-9.261-0.175c-3.787-3.213-8.008-5.922-11.928-8.764
		c-0.777,0.847-1.071,1.050-1.043,1.141c 7.378,18.935, 7.378,18.935-9.142,30.31c 0.448,3.206, 2.94,1.477, 4.452,1.673
		C 206.927-16.631, 212.282-18.234, 217.448-16.407zM 217.448-16.407c-3.311-3.045-7.315-0.84-10.955-1.484
		c-3.059-0.532-6.37,1.106-9.233-1.085c 0.098,2.268, 0.098,2.345, 1.645,2.366C 205.086-16.526, 211.267-16.47, 217.448-16.407zM 250.964-18.969c-4.445,2.247-9.184,0.469-13.741,1.078
		c-2.198,0.301-4.774-0.98-6.468,1.484c 6.167-0.063, 12.348-0.063, 18.522-0.245C 250.362-16.687, 253.897-15.714, 250.964-18.969z"  />
<glyph unicode="&#x2388;" d="M 256,160q0,26.5 -18.75,45.25t-45.25,18.75t-45.25-18.75t-18.75-45.25t 18.75-45.25t 45.25-18.75t 45.25,18.75t 18.75,45.25zM 384,187.25l0-55.5 q0-3 -2-5.75t-5-3.25l-46.25-7q-4.75-13.5 -9.75-22.75q 8.75-12.5 26.75-34.5q 2.5-3 2.5-6.25t-2.25-5.75q-6.75-9.25 -24.75-27t-23.5-17.75q-3,0 -6.5,2.25l-34.5,27q-11-5.75 -22.75-9.5 q-4-34 -7.25-46.5q-1.75-7 -9-7l-55.5,0 q-3.5,0 -6.125,2.125t-2.875,5.375l-7,46q-12.25,4 -22.5,9.25l-35.25-26.75q-2.5-2.25 -6.25-2.25q-3.5,0 -6.25,2.75q-31.5,28.5 -41.25,42q-1.75,2.5 -1.75,5.75q0,3 2,5.75q 3.75,5.25 12.75,16.625t 13.5,17.625q-6.75,12.5 -10.25,24.75l-45.75,6.75q-3.25,0.5 -5.25,3.125t-2,5.875l0,55.5 q0,3 2,5.75t 4.75,3.25 l 46.5,7q 3.5,11.5 9.75,23q-10,14.25 -26.75,34.5q-2.5,3 -2.5,6q0,2.5 2.25,5.75q 6.5,9 24.625,26.875t 23.625,17.875q 3.25,0 6.5-2.5l 34.5-26.75q 11,5.75 22.75,9.5q 4,34 7.25,46.5q 1.75,7 9,7l 55.5,0 q 3.5,0 6.125-2.125t 2.875-5.375l 7-46q 12.25-4 22.5-9.25l 35.5,26.75q 2.25,2.25 6,2.25q 3.25,0 6.25-2.5q 32.25-29.75 41.25-42.5q 1.75-2 1.75-5.5 q0-3 -2-5.75q-3.75-5.25 -12.75-16.625t-13.5-17.625q 6.5-12.5 10.25-24.5l 45.75-7q 3.25-0.5 5.25-3.125t 2-5.875z" horiz-adv-x="384"  />
<glyph unicode="&#xe01e;" d="M 56,244L 336,244L 336,160L 448,272L 336,384L 336,300L0,300L0,132L 56,132 	zM 392,76L 112,76L 112,160L0,48L 112-64L 112,20L 448,20L 448,188L 392,188 	z"  />
<glyph unicode="&#xe01a;" d="M 84,188l 84,0 L 168,272 l 56,0 l0-84 l 84,0 l0-56 l-84,0 l0-84 l-56,0 l0,84 L 84,132 L 84,188 z M 64.4,384C 46.2,384, 28,365.338, 28,346.662l0-373.324 
	C 28-45.338, 46.2-64, 64.4-64l 291.2,0 c 18.2,0, 36.4,18.662, 36.4,37.338L 392,234.662 L 246.4,384L 64.4,384 z"  />
<glyph unicode="&#x20;" horiz-adv-x="224" />
</font>
</defs>
</svg>
